<svg width="14" height="14" viewBox="0 0 14 14" fill="none" xmlns="http://www.w3.org/2000/svg">
<path fill-rule="evenodd" clip-rule="evenodd" d="M0.700001 6.99989C0.700001 4.48329 0.700001 3.22499 1.29968 2.31868C1.56747 1.91396 1.91407 1.56736 2.31879 1.29957C3.2251 0.69989 4.4834 0.69989 7 0.69989C9.5166 0.69989 10.7749 0.69989 11.6812 1.29957C12.0859 1.56736 12.4325 1.91396 12.7003 2.31868C13.3 3.22499 13.3 4.48329 13.3 6.99989C13.3 9.51649 13.3 10.7748 12.7003 11.6811C12.4325 12.0858 12.0859 12.4324 11.6812 12.7002C10.7749 13.2999 9.5166 13.2999 7 13.2999C4.4834 13.2999 3.2251 13.2999 2.31879 12.7002C1.91407 12.4324 1.56747 12.0858 1.29968 11.6811C0.700001 10.7748 0.700001 9.51649 0.700001 6.99989ZM10.2615 7.00009C10.2615 8.80142 8.80121 10.2617 6.99989 10.2617C5.19857 10.2617 3.7383 8.80142 3.7383 7.00009C3.7383 5.19877 5.19857 3.73851 6.99989 3.73851C8.80121 3.73851 10.2615 5.19877 10.2615 7.00009ZM6.99989 9.1582C8.19178 9.1582 9.15799 8.19198 9.15799 7.00009C9.15799 5.80821 8.19178 4.84199 6.99989 4.84199C5.808 4.84199 4.84179 5.80821 4.84179 7.00009C4.84179 8.19198 5.808 9.1582 6.99989 9.1582ZM10.3903 4.34102C10.8136 4.34102 11.1567 3.9979 11.1567 3.57464C11.1567 3.15138 10.8136 2.80826 10.3903 2.80826C9.96704 2.80826 9.62392 3.15138 9.62392 3.57464C9.62392 3.9979 9.96704 4.34102 10.3903 4.34102Z" fill="white"/>
</svg>
