<?xml version="1.0" encoding="UTF-8" standalone="no"?>
<svg
   width="128"
   height="128"
   viewBox="0 0 128 128.00001"
   fill="none"
   version="1.1"
   id="svg2"
   sodipodi:docname="favicon.svg"
   inkscape:version="1.2.2 (b0a8486541, 2022-12-01)"
   xmlns:inkscape="http://www.inkscape.org/namespaces/inkscape"
   xmlns:sodipodi="http://sodipodi.sourceforge.net/DTD/sodipodi-0.dtd"
   xmlns="http://www.w3.org/2000/svg"
   xmlns:svg="http://www.w3.org/2000/svg">
  <defs
     id="defs2" />
  <sodipodi:namedview
     id="namedview2"
     pagecolor="#ffffff"
     bordercolor="#000000"
     borderopacity="0.25"
     inkscape:showpageshadow="2"
     inkscape:pageopacity="0.0"
     inkscape:pagecheckerboard="0"
     inkscape:deskcolor="#d1d1d1"
     showgrid="false"
     inkscape:zoom="1.4142136"
     inkscape:cx="316.78383"
     inkscape:cy="193.74725"
     inkscape:window-width="1920"
     inkscape:window-height="964"
     inkscape:window-x="0"
     inkscape:window-y="32"
     inkscape:window-maximized="1"
     inkscape:current-layer="svg2" />
  <g
     id="g3"
     transform="matrix(0.08817442,0,0,0.08817442,-16.590177,9.4639429)">
    <path
       fill-rule="evenodd"
       clip-rule="evenodd"
       d="m 654.5,149.064 c -7.15,0.396 -17.275,1.434 -22.5,2.305 -5.225,0.871 -11.3,2 -13.5,2.508 -2.2,0.508 -7.6,1.884 -12,3.057 -4.4,1.172 -9.35,2.613 -11,3.2 -1.65,0.587 -3.9,1.437 -5,1.889 -1.1,0.452 -4.25,1.617 -7,2.588 -2.75,0.971 -11.75,5.2 -20,9.397 -8.25,4.197 -18.33,9.85 -22.4,12.561 -4.07,2.712 -8.375,5.606 -9.568,6.431 -1.192,0.825 -4.162,3.07 -6.6,4.99 -2.438,1.919 -6.232,5.052 -8.432,6.963 -2.2,1.911 -8.526,7.991 -14.058,13.511 -5.532,5.52 -12.546,13.186 -15.587,17.036 -3.04,3.85 -8.302,10.906 -11.691,15.681 -3.39,4.775 -6.164,8.98 -6.164,9.346 0,0.365 -0.845,1.859 -1.878,3.319 -1.033,1.46 -4.134,7.154 -6.891,12.654 -2.757,5.5 -6.187,12.6 -7.622,15.777 -1.435,3.178 -2.609,6.221 -2.609,6.764 0,0.542 -0.397,1.768 -0.883,2.723 -0.486,0.955 -1.341,2.861 -1.899,4.236 -0.559,1.375 -1.476,3.85 -2.037,5.5 -0.562,1.65 -1.803,5.7 -2.758,9 -0.955,3.3 -2.116,6.428 -2.58,6.95 -0.464,0.522 -0.843,1.766 -0.843,2.764 0,0.997 -0.418,2.595 -0.928,3.55 -0.51,0.955 -1.653,4.211 -2.538,7.236 -0.886,3.025 -1.991,6.4 -2.455,7.5 -0.464,1.1 -2.045,5.825 -3.514,10.5 -1.468,4.675 -3.046,9.4 -3.507,10.5 -0.46,1.1 -5.209,15.5 -10.553,32 -5.345,16.5 -10.096,30.9 -10.559,32 -0.462,1.1 -2.043,5.825 -3.511,10.5 -1.469,4.675 -3.044,9.4 -3.5,10.5 -0.457,1.1 -2.032,5.825 -3.5,10.5 -1.469,4.675 -3.051,9.4 -3.517,10.5 -0.466,1.1 -2.011,5.825 -3.432,10.5 -1.422,4.675 -3.013,9.281 -3.535,10.236 -0.523,0.955 -0.951,2.553 -0.951,3.55 0,0.998 -0.374,2.241 -0.831,2.764 -0.457,0.522 -1.658,3.875 -2.669,7.45 -1.011,3.575 -2.212,6.928 -2.669,7.45 -0.457,0.523 -0.831,1.766 -0.831,2.764 0,0.997 -0.428,2.595 -0.951,3.55 -0.522,0.955 -2.113,5.561 -3.535,10.236 -1.421,4.675 -2.975,9.4 -3.453,10.5 -0.477,1.1 -8.383,24.95 -17.569,53 -9.185,28.05 -17.08,51.9 -17.544,53 -0.464,1.1 -2.045,5.825 -3.513,10.5 -1.469,4.675 -3.022,9.4 -3.452,10.5 -0.429,1.1 -1.241,3.35 -1.802,5 -0.562,1.65 -1.803,5.7 -2.758,9 -0.955,3.3 -2.116,6.428 -2.58,6.95 -0.464,0.522 -0.843,1.766 -0.843,2.764 0,0.997 -0.424,2.595 -0.941,3.55 -0.518,0.955 -1.714,4.436 -2.657,7.736 -0.944,3.3 -2.095,6.428 -2.559,6.95 -0.464,0.522 -0.843,1.766 -0.843,2.764 0,0.997 -0.418,2.595 -0.928,3.55 -0.51,0.955 -1.653,4.211 -2.538,7.236 -0.886,3.025 -1.993,6.4 -2.459,7.5 -0.467,1.1 -6.797,20.225 -14.068,42.5 -7.271,22.275 -13.599,41.4 -14.061,42.5 -0.463,1.1 -2.043,5.825 -3.511,10.5 -1.469,4.675 -3.051,9.4 -3.517,10.5 -0.466,1.1 -2.011,5.825 -3.432,10.5 -1.422,4.675 -3.013,9.281 -3.535,10.236 -0.523,0.955 -0.951,2.553 -0.951,3.55 0,0.998 -0.374,2.242 -0.831,2.764 -0.457,0.523 -1.658,3.875 -2.669,7.45 -1.011,3.575 -2.212,6.927 -2.669,7.45 -0.457,0.522 -0.831,1.766 -0.831,2.764 0,0.997 -0.428,2.595 -0.951,3.55 -0.522,0.955 -2.113,5.561 -3.535,10.236 -1.421,4.675 -2.966,9.4 -3.432,10.5 -0.466,1.1 -2.048,5.825 -3.517,10.5 -1.468,4.675 -3.048,9.4 -3.51,10.5 -0.462,1.1 -6.787,20.225 -14.055,42.5 -7.268,22.275 -13.593,41.4 -14.055,42.5 -0.462,1.1 -2.042,5.82 -3.51,10.5 -1.469,4.67 -3.051,9.4 -3.517,10.5 -0.466,1.1 -2.011,5.82 -3.432,10.5 -1.422,4.67 -3.013,9.28 -3.535,10.24 -0.523,0.95 -0.951,2.42 -0.951,3.26 0,0.84 -0.424,2.31 -0.941,3.26 -0.518,0.96 -1.714,4.44 -2.657,7.74 -0.944,3.3 -2.095,6.43 -2.559,6.95 -0.464,0.52 -0.843,1.96 -0.843,3.19 0,1.23 -0.475,2.53 -1.055,2.89 -0.581,0.36 -0.918,1.29 -0.75,2.07 0.262,1.22 60.787,1.42 433.647,1.41 238.338,0 433.748,-0.26 434.238,-0.56 0.5,-0.31 3.52,-0.98 6.72,-1.5 3.2,-0.51 8.71,-1.85 12.26,-2.98 3.54,-1.13 7.34,-2.45 8.44,-2.94 1.1,-0.49 5.11,-2.33 8.92,-4.09 3.81,-1.76 11.21,-6.11 16.45,-9.67 5.25,-3.55 12.4,-9.23 15.91,-12.62 3.51,-3.38 9.38,-10.2 13.05,-15.15 3.67,-4.95 7.46,-10.35 8.44,-12 0.97,-1.65 3.14,-5.92 4.83,-9.5 1.68,-3.58 3.39,-7.17 3.79,-8 0.4,-0.83 6.26,-18.375 13.02,-39 6.77,-20.625 12.69,-38.4 13.16,-39.5 0.47,-1.1 2.02,-5.825 3.44,-10.5 1.43,-4.675 3.02,-9.281 3.54,-10.236 0.52,-0.955 0.95,-2.553 0.95,-3.55 0,-0.998 0.37,-2.242 0.83,-2.764 0.46,-0.523 1.66,-3.875 2.67,-7.45 1.01,-3.575 2.21,-6.927 2.67,-7.45 0.46,-0.522 0.83,-1.766 0.83,-2.764 0,-0.997 0.41,-2.595 0.92,-3.55 0.5,-0.955 2.08,-5.433 3.5,-9.951 1.42,-4.518 2.58,-8.465 2.58,-8.771 0,-0.305 -9.04,-0.434 -20.09,-0.285 l -20.09,0.271 -7.51,23 c -4.14,12.65 -7.91,23.9 -8.38,25 -0.47,1.1 -2.02,5.825 -3.44,10.5 -1.43,4.675 -3.02,9.281 -3.54,10.236 -0.52,0.955 -0.95,2.553 -0.95,3.55 0,0.998 -0.37,2.242 -0.83,2.764 -0.46,0.523 -1.66,3.875 -2.67,7.45 -1.01,3.575 -2.21,6.927 -2.67,7.45 -0.46,0.522 -0.83,1.895 -0.83,3.05 0,1.155 -0.37,2.528 -0.83,3.05 -0.46,0.523 -1.66,3.875 -2.67,7.45 -1.01,3.575 -2.21,6.927 -2.67,7.45 -0.46,0.522 -0.83,1.91 -0.83,3.083 0,1.174 -0.27,2.407 -0.61,2.741 -0.33,0.335 -1.86,4.354 -3.4,8.932 -1.54,4.578 -4.27,11.014 -6.07,14.314 -1.79,3.29 -5.08,8.45 -7.3,11.48 -2.22,3.03 -6.53,7.94 -9.57,10.92 -3.05,2.98 -8.9,7.58 -13,10.22 -4.1,2.64 -10.85,6.09 -15,7.68 -4.15,1.58 -9.12,3.51 -11.05,4.28 -2.98,1.19 -64.04,1.44 -410.25,1.66 -387.559,0.24 -406.749,0.17 -406.735,-1.5 0.008,-0.97 0.818,-4.33 1.799,-7.48 0.982,-3.14 2.1,-6.03 2.485,-6.41 0.386,-0.39 0.701,-1.53 0.701,-2.55 0,-1.02 0.428,-2.63 0.951,-3.58 0.522,-0.96 2.113,-5.57 3.535,-10.24 1.421,-4.67 2.988,-9.4 3.482,-10.5 0.493,-1.1 2.068,-5.83 3.5,-10.5 1.431,-4.675 2.984,-9.4 3.45,-10.5 0.466,-1.1 2.048,-5.825 3.517,-10.5 1.468,-4.675 3.049,-9.4 3.511,-10.5 0.463,-1.1 5.214,-15.5 10.559,-32 5.344,-16.5 10.093,-30.9 10.553,-32 0.461,-1.1 2.039,-5.825 3.507,-10.5 1.469,-4.675 3.05,-9.4 3.514,-10.5 0.464,-1.1 1.569,-4.475 2.455,-7.5 0.885,-3.025 2.028,-6.281 2.538,-7.236 0.51,-0.955 0.928,-2.553 0.928,-3.55 0,-0.998 0.379,-2.242 0.843,-2.764 0.464,-0.523 1.634,-3.65 2.6,-6.95 0.966,-3.3 2.253,-7.575 2.861,-9.5 0.607,-1.925 1.462,-3.927 1.9,-4.45 0.438,-0.522 0.796,-1.766 0.796,-2.764 0,-0.997 0.424,-2.595 0.941,-3.55 0.518,-0.955 1.714,-4.436 2.657,-7.736 0.944,-3.3 2.095,-6.427 2.559,-6.95 0.464,-0.522 0.843,-1.766 0.843,-2.764 0,-0.997 0.411,-2.595 0.914,-3.55 0.502,-0.955 7.97,-23.336 16.594,-49.736 8.625,-26.4 16.073,-48.9 16.551,-50 0.479,-1.1 2.034,-5.825 3.455,-10.5 1.422,-4.675 3.013,-9.281 3.535,-10.236 0.523,-0.955 0.951,-2.553 0.951,-3.55 0,-0.998 0.374,-2.241 0.831,-2.764 0.457,-0.522 1.658,-3.875 2.669,-7.45 1.011,-3.575 2.212,-6.928 2.669,-7.45 0.457,-0.523 0.831,-1.766 0.831,-2.764 0,-0.997 0.428,-2.595 0.951,-3.55 0.522,-0.955 2.113,-5.561 3.535,-10.236 1.421,-4.675 2.988,-9.4 3.482,-10.5 0.493,-1.1 2.068,-5.825 3.5,-10.5 1.431,-4.675 2.984,-9.4 3.45,-10.5 0.466,-1.1 2.048,-5.825 3.517,-10.5 1.468,-4.675 3.048,-9.4 3.51,-10.5 0.462,-1.1 6.787,-20.225 14.055,-42.5 7.268,-22.275 13.593,-41.4 14.055,-42.5 0.462,-1.1 2.042,-5.825 3.51,-10.5 1.469,-4.675 3.051,-9.4 3.517,-10.5 0.466,-1.1 2.011,-5.825 3.432,-10.5 1.422,-4.675 3.013,-9.281 3.535,-10.236 0.523,-0.955 0.951,-2.553 0.951,-3.55 0,-0.998 0.374,-2.242 0.831,-2.764 0.457,-0.522 1.658,-3.875 2.669,-7.45 1.011,-3.575 2.212,-6.928 2.669,-7.45 0.457,-0.522 0.831,-1.766 0.831,-2.764 0,-0.997 0.428,-2.595 0.951,-3.55 0.522,-0.955 2.113,-5.561 3.535,-10.236 1.421,-4.675 2.976,-9.4 3.455,-10.5 0.478,-1.1 7.934,-23.6 16.567,-50 8.634,-26.4 16.069,-48.9 16.522,-50 0.454,-1.1 2.241,-5.825 3.971,-10.5 1.731,-4.675 5.005,-12.325 7.276,-17 2.271,-4.675 6.121,-11.875 8.556,-16 2.434,-4.125 7.496,-11.55 11.247,-16.5 3.751,-4.95 10.555,-12.874 15.12,-17.609 4.565,-4.735 11.675,-11.5 15.8,-15.033 4.125,-3.533 12.043,-9.446 17.595,-13.141 5.552,-3.694 10.577,-6.717 11.167,-6.717 0.589,0 1.221,-0.343 1.405,-0.761 0.183,-0.419 4.158,-2.633 8.833,-4.921 4.675,-2.288 10.3,-4.904 12.5,-5.815 2.2,-0.91 6.025,-2.318 8.5,-3.129 2.475,-0.811 5.4,-1.874 6.5,-2.363 1.1,-0.488 6.95,-2.049 13,-3.469 6.05,-1.421 13.025,-3.018 15.5,-3.549 2.475,-0.532 11.925,-1.421 21,-1.976 10.555,-0.645 144.22,-1.004 371,-0.997 194.98,0.006 355.07,0.374 355.77,0.819 0.98,0.62 -0.14,5.08 -4.84,19.234 -3.37,10.135 -6.5,19.664 -6.96,21.177 l -0.83,2.75 h 20.24 20.24 l 1.86,-6.25 c 1.02,-3.437 2.18,-6.925 2.59,-7.75 0.4,-0.825 5.51,-16.035 11.36,-33.8 5.84,-17.766 10.36,-32.728 10.04,-33.25 -0.37,-0.598 -143.68,-0.886 -386.28,-0.779 -212.129,0.095 -391.54,0.496 -398.69,0.893 z"
       fill="#080707"
       id="path1"
       sodipodi:nodetypes="csscsssscccssccssscssccsssscscccccccsccscscsccccscccsssccsssccsccsccscscsccscssscsccsccssccccccssccsccscscsscscscsssccscsscscscscscscscscccsccsccccscccccscsscsccscccscccccscscsccccscssscsccsssssccccccscssscscscsccccscccccccccccc" />
    <path
       fill-rule="evenodd"
       clip-rule="evenodd"
       d="m 847.75,186.75 c 98.588,0.14 259.91,0.14 358.5,0 98.59,-0.141 17.92,-0.255 -179.25,-0.255 -197.175,0 -277.837,0.114 -179.25,0.255 z m 58.38,156.791 c -1.854,0.805 -4.596,2.867 -6.093,4.582 -1.497,1.714 -3.205,4.526 -3.796,6.247 -0.59,1.722 -2.284,7.18 -3.763,12.13 -1.479,4.95 -3.04,9.9 -3.468,11 -0.428,1.1 -1.561,4.7 -2.518,8 -0.958,3.3 -2.135,6.781 -2.616,7.736 -0.482,0.955 -0.876,2.616 -0.876,3.691 0,1.075 -0.45,2.233 -1,2.573 -0.55,0.34 -1,1.692 -1,3.004 v 2.385 l 193.25,0.37 c 175.52,0.335 194.21,0.524 203.75,2.059 5.78,0.93 12.08,2.135 14,2.677 1.92,0.543 7.28,2.171 11.9,3.619 4.62,1.448 11.37,4.208 15,6.134 3.63,1.926 8.4,4.749 10.6,6.273 2.2,1.525 5.8,4.506 8.01,6.626 2.2,2.119 5.29,5.428 6.86,7.353 1.57,1.925 4.57,7.133 6.67,11.574 2.16,4.576 4.5,11.665 5.39,16.361 0.86,4.557 1.57,10.877 1.57,14.044 0,3.168 -0.67,9.755 -1.5,14.64 -0.82,4.885 -1.94,10.794 -2.5,13.131 -0.55,2.337 -1.42,6.163 -1.94,8.5 -0.52,2.337 -1.67,7.625 -2.55,11.75 -0.89,4.125 -2.09,9.3 -2.67,11.5 -0.59,2.2 -1.43,4.9 -1.88,6 -0.45,1.1 -1.59,4.475 -2.53,7.5 -0.95,3.025 -3.05,8.425 -4.66,12 -1.62,3.575 -3.67,8.075 -4.56,10 -0.88,1.925 -3.18,5.975 -5.12,9 -1.93,3.025 -5.55,7.975 -8.04,11 -2.5,3.025 -6.57,7.425 -9.04,9.778 -2.48,2.352 -7.72,6.506 -11.65,9.231 -3.92,2.724 -10.45,6.473 -14.5,8.331 -4.05,1.857 -9.61,4.061 -12.36,4.896 -2.75,0.835 -6.8,1.983 -9,2.55 -2.2,0.568 -6.25,1.518 -9,2.112 -2.75,0.595 -10.8,1.536 -17.9,2.092 -7.68,0.602 -63.66,1.034 -138.5,1.069 -69.08,0.033 -152.6,0.517 -185.6,1.077 -33,0.559 -98.7,1.402 -146,1.871 -47.3,0.47 -89.608,1.282 -94.018,1.805 -4.41,0.522 -10.71,1.465 -14,2.095 -3.29,0.629 -7.782,1.643 -9.982,2.253 -2.2,0.61 -7.375,2.214 -11.5,3.565 -4.125,1.35 -11.736,4.49 -16.913,6.976 -5.177,2.487 -12.377,6.487 -16,8.889 -3.623,2.403 -7.712,5.157 -9.087,6.121 -1.375,0.965 -4.914,4.012 -7.864,6.771 -2.95,2.76 -8.015,7.75 -11.254,11.09 -3.239,3.339 -8.475,9.501 -11.636,13.693 -3.16,4.193 -6.642,9.335 -7.736,11.429 -1.095,2.093 -2.223,4.031 -2.506,4.306 -0.283,0.275 -2.252,4.1 -4.375,8.5 -2.124,4.4 -4.247,8.9 -4.719,10 -0.472,1.1 -2.391,6.725 -4.265,12.5 -1.874,5.775 -4.181,13.2 -5.126,16.5 -0.945,3.3 -2.079,6.9 -2.519,8 -0.44,1.1 -1.564,4.7 -2.499,8 -0.934,3.3 -2.499,8.475 -3.478,11.5 -0.978,3.025 -2.788,8.875 -4.021,13 -1.233,4.125 -3.261,10.65 -4.506,14.5 -1.246,3.85 -3.037,9.7 -3.98,13 -0.944,3.3 -2.076,6.9 -2.516,8 -0.44,1.1 -1.565,4.7 -2.5,8 -0.935,3.3 -2.16,7.575 -2.722,9.5 -0.563,1.925 -1.418,4.281 -1.901,5.236 -0.482,0.955 -0.877,2.616 -0.877,3.691 0,1.075 -0.45,2.233 -1,2.573 -0.55,0.34 -1,1.38 -1,2.311 0,0.93 -1.756,7.091 -3.903,13.691 -2.146,6.599 -3.585,12.337 -3.196,12.751 0.388,0.414 69.531,0.639 153.652,0.5 L 801.5,900.5 804.831,890 c 1.832,-5.775 3.744,-11.281 4.25,-12.236 0.505,-0.955 0.919,-2.424 0.919,-3.264 0,-0.84 0.412,-2.309 0.916,-3.264 0.504,-0.955 3.242,-9.161 6.084,-18.236 2.842,-9.075 5.58,-17.281 6.084,-18.236 0.504,-0.955 0.916,-2.424 0.916,-3.264 0,-0.84 0.412,-2.309 0.916,-3.264 0.504,-0.955 3.242,-9.161 6.084,-18.236 2.842,-9.075 5.58,-17.281 6.084,-18.236 0.504,-0.955 0.916,-2.424 0.916,-3.264 0,-0.84 0.409,-2.309 0.909,-3.264 0.5,-0.955 2.158,-5.786 3.685,-10.736 1.527,-4.95 3.143,-9.428 3.591,-9.95 0.448,-0.523 0.815,-1.6 0.815,-2.395 0,-0.795 1.64,-4.867 3.644,-9.05 2.005,-4.183 5.211,-10.08 7.126,-13.105 1.914,-3.025 5.984,-8.365 9.043,-11.867 3.059,-3.503 8.74,-8.714 12.625,-11.581 3.884,-2.867 9.762,-6.494 13.062,-8.06 3.3,-1.566 6.9,-3.187 8,-3.603 1.1,-0.416 3.575,-1.205 5.5,-1.753 1.925,-0.548 5.3,-1.52 7.5,-2.161 2.35,-0.685 17.402,-1.518 36.5,-2.021 17.875,-0.47 123.85,-1.331 235.5,-1.912 111.65,-0.582 216.05,-1.504 232,-2.05 15.95,-0.546 35.53,-1.65 43.5,-2.454 7.97,-0.803 17.43,-1.926 21,-2.495 3.57,-0.569 8.53,-1.439 11,-1.934 2.47,-0.495 7.2,-1.425 10.5,-2.067 3.3,-0.642 7.35,-1.58 9,-2.083 1.65,-0.504 6.6,-2.117 11,-3.584 4.4,-1.468 11.37,-4.248 15.48,-6.179 4.12,-1.93 10.51,-5.444 14.2,-7.809 3.69,-2.365 7.97,-5.332 9.51,-6.594 1.55,-1.261 5.29,-4.768 8.31,-7.793 3.03,-3.025 6.68,-6.894 8.12,-8.597 1.44,-1.703 4.33,-5.753 6.41,-9 2.08,-3.247 5.71,-9.98 8.06,-14.963 2.35,-4.983 4.59,-10.383 4.98,-12 0.39,-1.617 1.01,-3.39 1.38,-3.94 0.38,-0.55 2.4,-6.4 4.49,-13 2.1,-6.6 4.16,-12.9 4.59,-14 0.42,-1.1 1.54,-4.7 2.48,-8 0.94,-3.3 2.39,-8.025 3.22,-10.5 0.83,-2.475 1.87,-5.85 2.31,-7.5 0.43,-1.65 1.99,-7.05 3.45,-12 1.45,-4.95 3.03,-10.35 3.5,-12 0.46,-1.65 2.04,-7.05 3.5,-12 1.45,-4.95 3.04,-10.35 3.51,-12 0.47,-1.65 1.6,-5.475 2.51,-8.5 0.91,-3.025 2.09,-7.3 2.63,-9.5 0.54,-2.2 1.45,-6.25 2.03,-9 0.57,-2.75 1.25,-12.2 1.52,-21 0.31,-10.241 0.06,-17.98 -0.69,-21.5 -0.64,-3.025 -2.03,-8.437 -3.08,-12.027 -1.06,-3.589 -3.71,-10.026 -5.9,-14.302 -2.18,-4.277 -5.66,-9.89 -7.73,-12.474 -2.06,-2.583 -5.79,-6.736 -8.27,-9.228 -2.49,-2.492 -6.32,-5.865 -8.52,-7.494 -2.2,-1.63 -4.22,-3.195 -4.5,-3.479 -0.28,-0.283 -2.3,-1.679 -4.5,-3.103 -2.2,-1.424 -8.28,-4.631 -13.5,-7.127 -5.22,-2.496 -14.22,-6.125 -20,-8.064 -5.78,-1.94 -12.97,-4.071 -16,-4.735 -3.03,-0.665 -7.53,-1.628 -10,-2.141 -2.47,-0.512 -6.97,-1.364 -10,-1.892 -3.03,-0.528 -14.05,-1.838 -24.5,-2.91 -18.37,-1.886 -28.58,-1.951 -306,-1.948 -249.695,0.002 -287.438,0.192 -290.37,1.465 z M 401.332,1088.75 c 116.507,0.14 306.857,0.14 423,0 116.142,-0.14 20.818,-0.26 -211.832,-0.26 -232.65,0 -327.676,0.12 -211.168,0.26 z"
       fill="#fc043c"
       id="path2" />
  </g>
</svg>
